<svg width="23" height="22" fill="none" xmlns="http://www.w3.org/2000/svg"><path fill-rule="evenodd" clip-rule="evenodd" d="M11 .458a11.04 11.04 0 0 0-7.125 2.61A10.924 10.924 0 0 0 .146 9.645a10.888 10.888 0 0 0 1.445 7.413 10.99 10.99 0 0 0 5.93 4.715c.547.102.752-.237.752-.525 0-.288-.01-1.123-.014-2.035-3.06.66-3.707-1.292-3.707-1.292-.499-1.267-1.22-1.6-1.22-1.6-.998-.678.074-.666.074-.666 1.106.078 1.687 1.129 1.687 1.129.98 1.672 2.574 1.188 3.2.905.099-.708.385-1.19.7-1.463-2.444-.275-5.013-1.213-5.013-5.404a4.223 4.223 0 0 1 1.133-2.936c-.113-.276-.49-1.388.108-2.898 0 0 .923-.293 3.025 1.121 1.803-.49 3.705-.49 5.508 0 2.1-1.414 3.022-1.121 3.022-1.121.6 1.507.222 2.619.11 2.898a4.214 4.214 0 0 1 1.134 2.94c0 4.2-2.573 5.125-5.022 5.395.394.34.745 1.005.745 2.026 0 1.464-.012 2.64-.012 3.001 0 .292.198.632.756.525a10.99 10.99 0 0 0 5.93-4.716 10.887 10.887 0 0 0 1.444-7.414 10.924 10.924 0 0 0-3.73-6.577A11.04 11.04 0 0 0 11.004.458H11z" fill="#000"/><path d="M7.359 18.31c0 .09-.102.166-.233.167-.131.002-.239-.07-.239-.16 0-.088.102-.164.233-.166.131-.002.239.07.239.16zM8.197 18.171c.016.089-.075.181-.206.203-.131.022-.246-.03-.262-.118-.017-.087.078-.18.205-.204.128-.024.246.03.263.12zM6.459 18.25c-.027.084-.151.122-.275.086-.124-.036-.206-.138-.182-.225.023-.087.15-.126.275-.087.126.04.206.136.182.225zM5.634 17.894c-.06.067-.182.049-.282-.042-.1-.09-.124-.213-.064-.279.06-.065.182-.047.286.042.104.089.124.214.06.28zM5.046 17.285c-.068.048-.183 0-.246-.094a.181.181 0 0 1 0-.26c.067-.046.182 0 .246.092.063.092.065.215 0 .262zM4.612 16.657a.183.183 0 0 1-.226-.05c-.07-.077-.085-.182-.03-.229.054-.047.152-.025.223.05.071.077.088.182.033.23zM4.166 16.163c-.024.054-.111.07-.182.032-.071-.038-.124-.108-.099-.165.026-.056.111-.07.182-.032.071.038.126.11.099.165z" fill="#fff"/></svg>