<svg width="22" height="22" fill="none" xmlns="http://www.w3.org/2000/svg"><path fill-rule="evenodd" clip-rule="evenodd" d="M15.22 6.003A5.978 5.978 0 0 0 11 4.353c-2.87 0-5.307 1.937-6.176 4.544a6.589 6.589 0 0 0 0 4.212h.004c.873 2.603 3.306 4.539 6.176 4.539 1.481 0 2.753-.38 3.739-1.049v-.002a5.092 5.092 0 0 0 2.199-3.343H11V9.018h10.375c.13.736.19 1.488.19 2.235 0 3.346-1.195 6.175-3.276 8.09l.003.002c-1.823 1.682-4.325 2.656-7.292 2.656-4.16 0-7.963-2.345-9.83-6.059a11.01 11.01 0 0 1 0-9.878A10.998 10.998 0 0 1 11 0a10.572 10.572 0 0 1 7.36 2.861l-3.14 3.141z" fill="#000"/></svg>