<svg width="25" height="21" fill="none" xmlns="http://www.w3.org/2000/svg"><path fill-rule="evenodd" clip-rule="evenodd" d="M22.299.97H1.939a.97.97 0 0 0-.97.969v16.482c0 .535.435.97.97.97H22.3a.97.97 0 0 0 .97-.97V1.939a.97.97 0 0 0-.97-.97zM1.939 0C.87 0 0 .868 0 1.939v16.482c0 1.07.868 1.939 1.939 1.939H22.3c1.071 0 1.94-.868 1.94-1.939V1.939C24.238.87 23.37 0 22.298 0H1.939z" fill="#000"/><path d="M2.909 8.726a.97.97 0 0 1 .97-.97h3.877a.97.97 0 0 1 .97.97v7.756a.97.97 0 0 1-.97.97H3.878a.97.97 0 0 1-.97-.97V8.726z" fill="#000"/><path fill-rule="evenodd" clip-rule="evenodd" d="M7.756 8.726H3.878v7.756h3.878V8.726zm-3.878-.97a.97.97 0 0 0-.97.97v7.756c0 .535.435.97.97.97h3.878a.97.97 0 0 0 .97-.97V8.726a.97.97 0 0 0-.97-.97H3.878z" fill="#000"/><path d="M10.665 8.726a.97.97 0 0 1 .97-.97h8.725a.97.97 0 1 1 0 1.94h-8.726a.97.97 0 0 1-.97-.97z" fill="#000"/><path fill-rule="evenodd" clip-rule="evenodd" d="M11.634 7.756a.97.97 0 1 0 0 1.94h8.726a.97.97 0 1 0 0-1.94h-8.726z" fill="#000"/><path d="M10.665 12.604a.97.97 0 0 1 .97-.97h8.725a.97.97 0 1 1 0 1.94h-8.726a.97.97 0 0 1-.97-.97z" fill="#000"/><path fill-rule="evenodd" clip-rule="evenodd" d="M11.634 11.634a.97.97 0 1 0 0 1.94h8.726a.97.97 0 1 0 0-1.94h-8.726z" fill="#000"/><path d="M10.665 16.482a.97.97 0 0 1 .97-.97h8.725a.97.97 0 1 1 0 1.94h-8.726a.97.97 0 0 1-.97-.97z" fill="#000"/><path fill-rule="evenodd" clip-rule="evenodd" d="M11.634 15.512a.97.97 0 1 0 0 1.94h8.726a.97.97 0 1 0 0-1.94h-8.726zM1.939 0C.869 0 0 .868 0 1.939v3.878h24.238V1.94C24.238.869 23.37 0 22.3 0H1.939zm.97 3.878a.97.97 0 1 0 0-1.939.97.97 0 0 0 0 1.94zm3.878-.97a.97.97 0 1 1-1.94 0 .97.97 0 0 1 1.94 0zm1.939.97a.97.97 0 1 0 0-1.939.97.97 0 0 0 0 1.94z" fill="#000"/><path fill-rule="evenodd" clip-rule="evenodd" d="M1.939.97a.97.97 0 0 0-.97.969v2.909h22.3V1.939a.97.97 0 0 0-.97-.97H8.735a1.94 1.94 0 1 1-1.464 3.222 1.934 1.934 0 0 1-1.454.657c-.579 0-1.099-.254-1.454-.657A1.939 1.939 0 1 1 2.899.97h-.96zm.979 0a1.934 1.934 0 0 1 1.445.656c.353-.4.87-.654 1.445-.656h-2.89zm2.908 0a1.934 1.934 0 0 1 1.445.656c.354-.4.87-.654 1.445-.656h-2.89zm-.978 1.932V2.915a.97.97 0 1 0 0-.013zm-.97 0a.97.97 0 1 0 0 .013V2.902zM0 1.939C0 .869.868 0 1.939 0H22.3c1.071 0 1.94.868 1.94 1.939v3.878H0V1.94zm9.695.97a.97.97 0 1 1-1.939 0 .97.97 0 0 1 1.94 0z" fill="#000"/></svg>