<svg width="21" height="17" fill="none" xmlns="http://www.w3.org/2000/svg"><path d="M6.606 17c7.923 0 12.257-6.541 12.257-12.212 0-.184-.004-.372-.012-.556A8.731 8.731 0 0 0 21 2.01a8.52 8.52 0 0 1-2.473.675A4.319 4.319 0 0 0 20.422.31a8.68 8.68 0 0 1-2.735 1.041A4.328 4.328 0 0 0 12.51.508a4.305 4.305 0 0 0-1.894 2.013 4.284 4.284 0 0 0-.275 2.745 12.272 12.272 0 0 1-4.917-1.3A12.228 12.228 0 0 1 1.464.784a4.283 4.283 0 0 0 1.333 5.728 4.326 4.326 0 0 1-1.952-.536v.053c0 .992.343 1.953.974 2.72a4.31 4.31 0 0 0 2.483 1.49 4.298 4.298 0 0 1-1.944.073c.275.853.81 1.598 1.532 2.133a4.327 4.327 0 0 0 2.49.85A8.662 8.662 0 0 1 0 15.072 12.256 12.256 0 0 0 6.606 17z" fill="#000"/></svg>