<svg width="19" height="18" viewBox="0 0 19 18" fill="none" xmlns="http://www.w3.org/2000/svg">
<path fill-rule="evenodd" clip-rule="evenodd" d="M0.405699 0.474093C0.972294 -0.130275 1.92155 -0.160896 2.52592 0.405699L18.5259 15.4057C19.1303 15.9723 19.1609 16.9215 18.5943 17.5259C18.0277 18.1303 17.0785 18.1609 16.4741 17.5943L0.474093 2.59431C-0.130275 2.02772 -0.160896 1.07846 0.405699 0.474093Z" fill="#1A1A1A"/>
<path fill-rule="evenodd" clip-rule="evenodd" d="M18.5943 0.474093C19.1609 1.07846 19.1303 2.02772 18.5259 2.59431L2.52592 17.5943C1.92155 18.1609 0.972294 18.1303 0.405699 17.5259C-0.160896 16.9215 -0.130275 15.9723 0.474093 15.4057L16.4741 0.405699C17.0785 -0.160896 18.0277 -0.130275 18.5943 0.474093Z" fill="#1A1A1A"/>
</svg>
