<svg width="21" height="22" viewBox="0 0 21 22" fill="none" xmlns="http://www.w3.org/2000/svg">
<path d="M19.8726 0H13.5063C12.8873 0 12.3789 0.50838 12.3789 1.12732C12.3789 1.74627 12.8873 2.25465 13.5063 2.25465L17.1315 2.2548L6.58735 12.8211C6.14528 13.2631 6.14528 13.9706 6.58735 14.4127C6.80846 14.6338 7.09573 14.7442 7.38313 14.7442C7.67054 14.7442 7.95783 14.6336 8.17892 14.4127L18.7452 3.86848V7.49373C18.7452 8.11268 19.2536 8.62106 19.8725 8.62106C20.4915 8.62106 20.9998 8.11268 20.9998 7.49373L21 1.12744C21 0.508494 20.4915 0 19.8726 0Z" fill="black"/>
<path d="M16.9547 10.4557C16.3357 10.4557 15.8274 10.9641 15.8274 11.583V16.1146C15.8274 17.5736 14.6338 18.7452 13.1968 18.7452H4.90735C3.44837 18.7452 2.27679 17.5516 2.27679 16.1146V7.82516C2.27679 6.36618 3.4704 5.1946 4.90735 5.1946H9.43891C10.0579 5.1946 10.5662 4.68622 10.5662 4.06728C10.5662 3.44833 10.0579 2.93995 9.43891 2.93995H4.90735C2.21052 2.93995 0 5.1284 0 7.8473V16.1367C0 18.8336 2.18845 21.0441 4.90735 21.0441H13.1968C15.8936 21.0441 18.1041 18.8556 18.1041 16.1367V11.5831C18.0819 10.9641 17.5736 10.4557 16.9547 10.4557Z" fill="black"/>
</svg>
