<svg width="25" height="21" viewBox="0 0 25 21" fill="none" xmlns="http://www.w3.org/2000/svg">
<path fill-rule="evenodd" clip-rule="evenodd" d="M22.299 0.969524H1.93905C1.4036 0.969524 0.969524 1.40359 0.969524 1.93905V18.421C0.969524 18.9564 1.40359 19.3905 1.93905 19.3905H22.299C22.8345 19.3905 23.2686 18.9564 23.2686 18.421V1.93905C23.2686 1.40359 22.8345 0.969524 22.299 0.969524ZM1.93905 0C0.868141 0 0 0.868142 0 1.93905V18.421C0 19.4919 0.868141 20.36 1.93905 20.36H22.299C23.37 20.36 24.2381 19.4919 24.2381 18.421V1.93905C24.2381 0.868141 23.37 0 22.299 0H1.93905Z" fill="black"/>
<path d="M2.90858 8.72569C2.90858 8.19023 3.34265 7.75616 3.8781 7.75616H7.7562C8.29165 7.75616 8.72572 8.19024 8.72572 8.72569V16.4819C8.72572 17.0173 8.29165 17.4514 7.7562 17.4514H3.87811C3.34265 17.4514 2.90858 17.0173 2.90858 16.4819V8.72569Z" fill="black"/>
<path fill-rule="evenodd" clip-rule="evenodd" d="M7.7562 8.72569L3.8781 8.72569V16.4819L7.7562 16.4819V8.72569ZM3.8781 7.75616C3.34265 7.75616 2.90858 8.19023 2.90858 8.72569V16.4819C2.90858 17.0173 3.34265 17.4514 3.87811 17.4514H7.7562C8.29165 17.4514 8.72572 17.0173 8.72572 16.4819V8.72569C8.72572 8.19024 8.29165 7.75616 7.7562 7.75616H3.8781Z" fill="black"/>
<path d="M10.6648 8.72569C10.6648 8.19024 11.0988 7.75616 11.6343 7.75616H20.36C20.8955 7.75616 21.3295 8.19024 21.3295 8.72569C21.3295 9.26114 20.8955 9.69521 20.36 9.69521H11.6343C11.0988 9.69521 10.6648 9.26114 10.6648 8.72569Z" fill="black"/>
<path fill-rule="evenodd" clip-rule="evenodd" d="M11.6343 7.75616C11.0988 7.75616 10.6648 8.19024 10.6648 8.72569C10.6648 9.26114 11.0988 9.69521 11.6343 9.69521H20.36C20.8955 9.69521 21.3295 9.26114 21.3295 8.72569C21.3295 8.19024 20.8955 7.75616 20.36 7.75616H11.6343Z" fill="black"/>
<path d="M10.6648 12.6038C10.6648 12.0683 11.0988 11.6343 11.6343 11.6343H20.36C20.8955 11.6343 21.3295 12.0683 21.3295 12.6038C21.3295 13.1392 20.8955 13.5733 20.36 13.5733H11.6343C11.0988 13.5733 10.6648 13.1392 10.6648 12.6038Z" fill="black"/>
<path fill-rule="evenodd" clip-rule="evenodd" d="M11.6343 11.6343C11.0988 11.6343 10.6648 12.0683 10.6648 12.6038C10.6648 13.1392 11.0988 13.5733 11.6343 13.5733H20.36C20.8955 13.5733 21.3295 13.1392 21.3295 12.6038C21.3295 12.0683 20.8955 11.6343 20.36 11.6343H11.6343Z" fill="black"/>
<path d="M10.6648 16.4819C10.6648 15.9465 11.0988 15.5124 11.6343 15.5124H20.36C20.8955 15.5124 21.3295 15.9465 21.3295 16.4819C21.3295 17.0174 20.8955 17.4514 20.36 17.4514H11.6343C11.0988 17.4514 10.6648 17.0174 10.6648 16.4819Z" fill="black"/>
<path fill-rule="evenodd" clip-rule="evenodd" d="M11.6343 15.5124C11.0988 15.5124 10.6648 15.9465 10.6648 16.4819C10.6648 17.0174 11.0988 17.4514 11.6343 17.4514H20.36C20.8955 17.4514 21.3295 17.0174 21.3295 16.4819C21.3295 15.9465 20.8955 15.5124 20.36 15.5124H11.6343Z" fill="black"/>
<path fill-rule="evenodd" clip-rule="evenodd" d="M1.93905 0C0.868141 0 0 0.868142 0 1.93905V5.81714H24.2381V1.93905C24.2381 0.868141 23.37 0 22.299 0H1.93905ZM2.90858 3.87807C3.44403 3.87807 3.8781 3.444 3.8781 2.90855C3.8781 2.3731 3.44403 1.93903 2.90858 1.93903C2.37313 1.93903 1.93906 2.3731 1.93906 2.90855C1.93906 3.444 2.37313 3.87807 2.90858 3.87807ZM6.78664 2.90855C6.78664 3.444 6.35257 3.87807 5.81712 3.87807C5.28167 3.87807 4.8476 3.444 4.8476 2.90855C4.8476 2.3731 5.28167 1.93903 5.81712 1.93903C6.35257 1.93903 6.78664 2.3731 6.78664 2.90855ZM8.72572 3.87807C9.26117 3.87807 9.69524 3.444 9.69524 2.90855C9.69524 2.3731 9.26117 1.93903 8.72572 1.93903C8.19027 1.93903 7.7562 2.3731 7.7562 2.90855C7.7562 3.444 8.19027 3.87807 8.72572 3.87807Z" fill="black"/>
<path fill-rule="evenodd" clip-rule="evenodd" d="M1.93905 0.969524C1.4036 0.969524 0.969524 1.40359 0.969524 1.93905V4.84762H23.2686V1.93905C23.2686 1.40359 22.8345 0.969524 22.299 0.969524H8.73496C9.80162 0.974503 10.6648 1.84073 10.6648 2.90855C10.6648 3.97946 9.79663 4.8476 8.72572 4.8476C8.14657 4.8476 7.62672 4.59369 7.27142 4.19113C6.91612 4.59369 6.39627 4.8476 5.81712 4.8476C5.23799 4.8476 4.71815 4.59371 4.36285 4.19116C4.00755 4.59371 3.48771 4.8476 2.90858 4.8476C1.83767 4.8476 0.969533 3.97946 0.969533 2.90855C0.969533 1.84073 1.83268 0.974503 2.89933 0.969524H1.93905ZM2.91783 0.969524C3.49324 0.97221 4.00944 1.22553 4.36285 1.62594C4.71626 1.22553 5.23246 0.97221 5.80787 0.969524H2.91783ZM5.82636 0.969524C6.4018 0.97221 6.91801 1.22555 7.27142 1.62597C7.62483 1.22555 8.14104 0.97221 8.71647 0.969524H5.82636ZM4.84762 2.90201C4.8476 2.90419 4.8476 2.90637 4.8476 2.90855C4.8476 2.91073 4.8476 2.91291 4.84762 2.91509C4.85114 3.44753 5.28385 3.87807 5.81712 3.87807C6.35257 3.87807 6.78664 3.444 6.78664 2.90855C6.78664 2.3731 6.35257 1.93903 5.81712 1.93903C5.28385 1.93903 4.85114 2.36956 4.84762 2.90201ZM3.87808 2.90201C3.87456 2.36956 3.44185 1.93903 2.90858 1.93903C2.37313 1.93903 1.93906 2.3731 1.93906 2.90855C1.93906 3.444 2.37313 3.87807 2.90858 3.87807C3.44185 3.87807 3.87456 3.44753 3.87808 2.91509C3.8781 2.91291 3.8781 2.91073 3.8781 2.90855C3.8781 2.90637 3.8781 2.90419 3.87808 2.90201ZM0 1.93905C0 0.868142 0.868141 0 1.93905 0H22.299C23.37 0 24.2381 0.868141 24.2381 1.93905V5.81714H0V1.93905ZM9.69524 2.90855C9.69524 3.444 9.26117 3.87807 8.72572 3.87807C8.19027 3.87807 7.7562 3.444 7.7562 2.90855C7.7562 2.3731 8.19027 1.93903 8.72572 1.93903C9.26117 1.93903 9.69524 2.3731 9.69524 2.90855Z" fill="black"/>
</svg>
