<svg width="21" height="17" viewBox="0 0 21 17" fill="none" xmlns="http://www.w3.org/2000/svg">
<path d="M6.60639 17C14.529 17 18.8635 10.4589 18.8635 4.78824C18.8635 4.60435 18.8594 4.41638 18.8512 4.23249C19.6944 3.62496 20.4221 2.87245 21 2.01031C20.2147 2.35841 19.3809 2.58575 18.5272 2.68457C19.4261 2.14771 20.0992 1.30434 20.4217 0.310783C19.576 0.81012 18.6511 1.16236 17.6868 1.3524C17.037 0.664539 16.1779 0.209091 15.2422 0.0564758C14.3066 -0.0961397 13.3465 0.0625776 12.5105 0.508089C11.6745 0.953599 11.0091 1.66109 10.6171 2.52118C10.2252 3.38126 10.1285 4.34604 10.3421 5.26635C8.62968 5.18073 6.95444 4.73754 5.42498 3.9655C3.89552 3.19346 2.54598 2.10981 1.46385 0.784804C0.91385 1.72956 0.745549 2.84751 0.993152 3.91145C1.24075 4.97538 1.88568 5.90548 2.79686 6.51269C2.1128 6.49106 1.44373 6.30756 0.844922 5.97738V6.0305C0.844309 7.02195 1.18834 7.98301 1.81852 8.75032C2.44871 9.51763 3.32616 10.0438 4.30172 10.2395C3.66805 10.4122 3.00298 10.4374 2.35799 10.313C2.63327 11.1657 3.16888 11.9114 3.89005 12.4462C4.61122 12.981 5.48198 13.2781 6.3808 13.2961C4.85487 14.4903 2.9699 15.138 1.02949 15.135C0.685376 15.1344 0.341599 15.1134 0 15.072C1.97125 16.332 4.26434 17.0012 6.60639 17Z" fill="black"/>
</svg>
