<svg width="27" height="19" viewBox="0 0 27 19" fill="none" xmlns="http://www.w3.org/2000/svg">
<path fill-rule="evenodd" clip-rule="evenodd" d="M0 1.5C0 0.671573 0.671573 0 1.5 0H25.5C26.3284 0 27 0.671573 27 1.5C27 2.32843 26.3284 3 25.5 3H1.5C0.671573 3 0 2.32843 0 1.5Z" fill="#1A1A1A"/>
<path fill-rule="evenodd" clip-rule="evenodd" d="M0 9.5C0 8.67157 0.671573 8 1.5 8H25.5C26.3284 8 27 8.67157 27 9.5C27 10.3284 26.3284 11 25.5 11H1.5C0.671573 11 0 10.3284 0 9.5Z" fill="#1A1A1A"/>
<path fill-rule="evenodd" clip-rule="evenodd" d="M0 17.5C0 16.6716 0.671573 16 1.5 16H25.5C26.3284 16 27 16.6716 27 17.5C27 18.3284 26.3284 19 25.5 19H1.5C0.671573 19 0 18.3284 0 17.5Z" fill="#1A1A1A"/>
</svg>
