<svg width="15" height="20" viewBox="0 0 15 20" fill="none" xmlns="http://www.w3.org/2000/svg">
<path d="M1.19679 11.5686L1.23428 11.6228C1.28006 11.6916 1.32801 11.7583 1.37597 11.8313L6.80527 19.6363C6.96382 19.8642 7.22365 20 7.50107 20C7.77848 20 8.0383 19.8642 8.19686 19.6363L13.6135 11.8373C13.6655 11.7643 13.7155 11.6935 13.7657 11.6287L13.7989 11.5787C14.7794 10.0606 15.1795 8.2395 14.9255 6.44975C14.6714 4.6601 13.7805 3.02227 12.4162 1.83733C11.0521 0.652476 9.30632 0 7.49992 0C5.69342 0 3.94785 0.652476 2.58364 1.83733C1.21951 3.02219 0.328553 4.66003 0.0745353 6.44975C-0.179482 8.23947 0.220584 10.0606 1.20106 11.5789L1.19679 11.5686ZM7.50109 4.38264C8.32984 4.38264 9.12478 4.71202 9.71083 5.2985C10.2968 5.88497 10.6261 6.6804 10.6261 7.5097C10.6261 8.33901 10.2968 9.13447 9.71083 9.72079C9.12475 10.3073 8.32984 10.6368 7.50109 10.6368C6.67233 10.6368 5.87739 10.3072 5.29135 9.72079C4.70541 9.13447 4.3761 8.33904 4.3761 7.5097C4.3761 6.6804 4.7054 5.88494 5.29135 5.2985C5.87743 4.71203 6.67233 4.38264 7.50109 4.38264Z" fill="black"/>
</svg>
