<svg width="22" height="22" viewBox="0 0 22 22" fill="none" xmlns="http://www.w3.org/2000/svg">
<path fill-rule="evenodd" clip-rule="evenodd" d="M15.2197 6.00295C14.0839 4.91972 12.5682 4.3296 11 4.35386C8.13026 4.35386 5.69301 6.2899 4.82399 8.8969C4.36322 10.2631 4.36322 11.7424 4.82399 13.1086H4.82802C5.70107 15.7116 8.13429 17.6476 11.004 17.6476C12.4854 17.6476 13.7571 17.2687 14.7428 16.5995V16.5968C15.9028 15.8288 16.695 14.6203 16.9416 13.2541H11V9.01823H21.3755C21.5049 9.75386 21.5655 10.5056 21.5655 11.2534C21.5655 14.5991 20.3698 17.4277 18.2894 19.3436L18.2916 19.3452C16.4687 21.0267 13.9667 22.0008 11 22.0008C6.84089 22.0008 3.03747 19.6565 1.17012 15.942C-0.390042 12.8338 -0.390038 9.17181 1.17013 6.0636C3.03748 2.34506 6.84089 0.000741277 11 0.000741277C13.7323 -0.0315938 16.3717 0.995046 18.3603 2.8624L15.2197 6.00295Z" fill="black"/>
</svg>
