<svg width="23" height="22" viewBox="0 0 23 22" fill="none" xmlns="http://www.w3.org/2000/svg">
<path fill-rule="evenodd" clip-rule="evenodd" d="M11.0003 0.458313C8.38888 0.459668 5.86313 1.38457 3.87464 3.06763C1.88615 4.75069 0.564588 7.08216 0.146259 9.64515C-0.27207 12.2081 0.24011 14.8355 1.59122 17.0575C2.94234 19.2794 5.04428 20.9511 7.52119 21.7735C8.06764 21.875 8.27347 21.5363 8.27347 21.2483C8.27347 20.9603 8.26254 20.1254 8.2589 19.2126C5.19879 19.8737 4.55216 17.9213 4.55216 17.9213C4.05307 16.6535 3.33176 16.3202 3.33176 16.3202C2.33358 15.6429 3.40645 15.6555 3.40645 15.6555C4.51209 15.7334 5.09315 16.7839 5.09315 16.7839C6.07312 18.4555 7.66691 17.972 8.29351 17.6894C8.39187 16.9813 8.67785 16.4995 8.99296 16.226C6.54852 15.9507 3.98021 15.0126 3.98021 10.8216C3.96506 9.73471 4.3707 8.68361 5.11319 7.88577C5.00025 7.61048 4.6232 6.49844 5.22065 4.98796C5.22065 4.98796 6.14415 4.69456 8.24616 6.10905C10.0491 5.6188 11.9514 5.6188 13.7544 6.10905C15.8545 4.69456 16.7762 4.98796 16.7762 4.98796C17.3755 6.49482 16.9984 7.60686 16.8855 7.88577C17.6303 8.68374 18.0368 9.73668 18.0203 10.8252C18.0203 15.0253 15.4465 15.9507 12.9984 16.2206C13.3919 16.5611 13.7434 17.2258 13.7434 18.2473C13.7434 19.7107 13.7307 20.8879 13.7307 21.2483C13.7307 21.5399 13.9292 21.8804 14.4866 21.7735C16.9638 20.951 19.0659 19.279 20.417 17.0567C21.7681 14.8344 22.28 12.2066 21.8612 9.64336C21.4424 7.08013 20.1202 4.74864 18.1311 3.06587C16.1419 1.3831 13.6156 0.458809 11.0039 0.458313H11.0003Z" fill="black"/>
<path d="M7.35886 18.3106C7.35886 18.3994 7.25686 18.4755 7.12571 18.4773C6.99456 18.4791 6.88709 18.4066 6.88709 18.3179C6.88709 18.2291 6.98909 18.1531 7.12024 18.1513C7.25139 18.1494 7.35886 18.2201 7.35886 18.3106Z" fill="white"/>
<path d="M8.19675 18.1712C8.21314 18.2599 8.12207 18.3523 7.99092 18.374C7.85977 18.3958 7.74502 18.3432 7.72862 18.2563C7.71223 18.1694 7.80695 18.0752 7.93445 18.0517C8.06196 18.0281 8.18035 18.0824 8.19675 18.1712Z" fill="white"/>
<path d="M6.459 18.2491C6.43168 18.3342 6.30782 18.3722 6.18396 18.336C6.06009 18.2998 5.97813 18.1984 6.00181 18.1114C6.02549 18.0245 6.15117 17.9846 6.27685 18.0245C6.40254 18.0643 6.48268 18.1603 6.459 18.2491Z" fill="white"/>
<path d="M5.63389 17.8941C5.57378 17.9611 5.45175 17.943 5.35156 17.8524C5.25138 17.7619 5.2277 17.6387 5.28781 17.5735C5.34791 17.5083 5.46996 17.5264 5.57378 17.6152C5.67761 17.7039 5.69765 17.8289 5.63389 17.8941Z" fill="white"/>
<path d="M5.04557 17.2855C4.97817 17.3326 4.86341 17.2856 4.79966 17.1914C4.78203 17.1745 4.76801 17.1542 4.75844 17.1318C4.74886 17.1094 4.74392 17.0853 4.74392 17.061C4.74392 17.0366 4.74886 17.0125 4.75844 16.9901C4.76801 16.9677 4.78203 16.9475 4.79966 16.9306C4.86705 16.8853 4.98182 16.9306 5.04557 17.0229C5.10932 17.1153 5.11114 17.2385 5.04557 17.2855Z" fill="white"/>
<path d="M4.61203 16.6571C4.5743 16.676 4.53115 16.6813 4.48994 16.672C4.44874 16.6628 4.41206 16.6396 4.38616 16.6064C4.31512 16.5303 4.30054 16.4253 4.35519 16.3782C4.40983 16.3311 4.5082 16.3528 4.57924 16.4289C4.65028 16.505 4.66667 16.61 4.61203 16.6571Z" fill="white"/>
<path d="M4.16574 16.1627C4.14206 16.217 4.05463 16.2333 3.98359 16.1953C3.91256 16.1572 3.85974 16.0866 3.88524 16.0304C3.91074 15.9743 3.99635 15.9598 4.06739 15.9978C4.13843 16.0359 4.19307 16.1083 4.16574 16.1627Z" fill="white"/>
</svg>
