<svg width="18" height="19" viewBox="0 0 18 19" fill="none" xmlns="http://www.w3.org/2000/svg">
<path d="M8.47059 0L0 5.49537H5.81526C5.79345 5.57835 5.75828 5.65377 5.74081 5.74009C5.6921 6.00606 5.65395 6.29859 5.65395 6.60303C5.65395 10.5278 9.51907 10.0849 9.51907 10.0849V11.0852C9.51907 11.4908 10.0316 11.3503 10.0919 12.1735C9.83568 12.1735 4.73782 12.0212 4.73782 15.591C4.73782 19.174 9.23782 18.9977 9.23782 18.9977C9.23782 18.9977 14.4347 19.2389 14.4347 14.8075C14.4369 12.1598 11.4589 11.2979 11.4589 10.2351C11.4589 9.15914 13.7027 8.84305 13.7027 6.32397C13.7027 5.2227 13.6301 4.43834 13.1546 3.88111C13.1176 3.84264 13.0934 3.81623 13.0574 3.79095C13.0493 3.78304 13.0389 3.77727 13.0306 3.76948H13.1608L15.3529 2.06291V4.3963C15.3523 4.43887 15.3565 4.48137 15.3653 4.52295C15.1991 4.61948 15.0611 4.76075 14.9657 4.93189C14.8704 5.10302 14.8212 5.29769 14.8235 5.49537V6.59445C14.8215 6.74009 14.8475 6.88468 14.8998 7.01984C14.9521 7.15499 15.0298 7.278 15.1283 7.38172C15.2268 7.48544 15.3442 7.56779 15.4737 7.62401C15.6031 7.68023 15.742 7.70917 15.8824 7.70917C16.0227 7.70917 16.1616 7.68023 16.291 7.62401C16.4205 7.56779 16.5379 7.48544 16.6364 7.38172C16.7349 7.278 16.8126 7.15499 16.8649 7.01984C16.9172 6.88468 16.9432 6.74009 16.9412 6.59445V5.49537C16.9435 5.29769 16.8943 5.10302 16.799 4.93189C16.7036 4.76075 16.5656 4.61948 16.3994 4.52295C16.4082 4.48137 16.4124 4.43887 16.4118 4.3963V1.23646L18 0H8.47059ZM9.20267 3.35518C9.50741 3.34086 9.81415 3.41771 10.1064 3.58916C10.3256 3.70347 10.5312 3.86668 10.7144 4.07001C11.0924 4.46238 11.4104 5.03206 11.5809 5.7036C11.9832 7.29835 11.4605 8.83192 10.3752 9.12318C9.30158 9.43861 8.10495 8.39822 7.69095 6.81555C7.50777 6.044 7.53305 5.29786 7.74058 4.70327C7.74254 4.6956 7.74682 4.68942 7.74885 4.6818C7.75241 4.67999 7.75781 4.67495 7.76126 4.67321C7.82075 4.43813 7.91799 4.22722 8.0363 4.05284C8.25394 3.7228 8.54097 3.49927 8.89867 3.40026C8.99925 3.37498 9.10108 3.35996 9.20267 3.35518ZM9.61627 12.8433C11.4089 12.7037 12.9349 13.7283 13.045 15.1209C13.1192 16.5013 11.74 17.7293 9.93474 17.8557C8.14215 17.9821 6.59381 16.9714 6.50804 15.591C6.42228 14.1984 7.81097 12.9829 9.61627 12.8433Z" fill="black"/>
</svg>
