<svg width="27" height="21" viewBox="0 0 27 21" fill="none" xmlns="http://www.w3.org/2000/svg">
<path fill-rule="evenodd" clip-rule="evenodd" d="M22.1429 2H4.85714C3.27919 2 2 3.27919 2 4.85714V16.1429C2 17.7208 3.27919 19 4.85714 19H22.1429C23.7208 19 25 17.7208 25 16.1429V4.85714C25 3.27919 23.7208 2 22.1429 2ZM4.85714 0C2.17462 0 0 2.17462 0 4.85714V16.1429C0 18.8254 2.17462 21 4.85714 21H22.1429C24.8254 21 27 18.8254 27 16.1429V4.85714C27 2.17462 24.8254 0 22.1429 0H4.85714Z" fill="black"/>
<path d="M16.5795 10.0713C16.9032 10.2655 16.9032 10.7345 16.5795 10.9287L10.8455 14.3692C10.5122 14.5691 10.0882 14.3291 10.0882 13.9404V7.05957C10.0882 6.67092 10.5122 6.43086 10.8455 6.63082L16.5795 10.0713Z" fill="black"/>
</svg>
