<svg width="19" height="19" viewBox="0 0 19 19" fill="none" xmlns="http://www.w3.org/2000/svg">
<path d="M0.663065 2.37318C-1.23412 4.31062 1.11213 9.09524 5.50822 13.4916C9.90462 17.8876 14.689 20.2341 16.6274 18.337C16.63 18.3333 16.6337 18.3314 16.6373 18.3291L18.77 16.1964C19.0767 15.8885 19.0767 15.3907 18.77 15.084L15.8494 12.1632C15.5422 11.8561 15.0444 11.8561 14.7368 12.1635L13.0676 13.8331C13.0676 13.8331 10.3337 12.5676 8.38326 10.6175C6.43271 8.66628 5.16767 5.93284 5.16767 5.93284L6.83681 4.26373C7.14423 3.95631 7.14469 3.45877 6.83704 3.15138L3.91575 0.230121C3.60856 -0.0770588 3.11078 -0.0765888 2.80339 0.230823L0.670918 2.36327C0.668108 2.36585 0.666812 2.37014 0.663065 2.37318Z" fill="black"/>
</svg>
