<svg width="21" height="15" viewBox="0 0 21 15" fill="none" xmlns="http://www.w3.org/2000/svg">
<path d="M1.57507 0C1.26709 0 0.980513 0.0864275 0.738265 0.237851L9.72881 8.06356C10.2058 8.47848 10.7767 8.47848 11.2546 8.06356L20.2616 0.237851C20.0195 0.0864228 19.7328 0 19.4248 0H1.57507ZM0.0902713 1.0664C0.0357046 1.22643 0 1.3958 0 1.57489V13.1248C0 13.9973 0.702369 14.6999 1.57508 14.6999H19.4249C20.2974 14.6999 21 13.9975 21 13.1248V1.57489C21 1.39582 20.9643 1.22645 20.9097 1.06621L11.9436 8.85114C11.1077 9.57695 9.87541 9.57826 9.03973 8.85114L0.0902713 1.0664Z" fill="black"/>
</svg>
