<svg width="27" height="21" fill="none" xmlns="http://www.w3.org/2000/svg"><path fill-rule="evenodd" clip-rule="evenodd" d="M22.143 2H4.857A2.857 2.857 0 0 0 2 4.857v11.286A2.857 2.857 0 0 0 4.857 19h17.286A2.857 2.857 0 0 0 25 16.143V4.857A2.857 2.857 0 0 0 22.143 2zM4.857 0A4.857 4.857 0 0 0 0 4.857v11.286A4.857 4.857 0 0 0 4.857 21h17.286A4.857 4.857 0 0 0 27 16.143V4.857A4.857 4.857 0 0 0 22.143 0H4.857z" fill="#000"/><path d="M16.58 10.071a.5.5 0 0 1 0 .858l-5.734 3.44a.5.5 0 0 1-.758-.429V7.06a.5.5 0 0 1 .758-.43l5.733 3.441z" fill="#000"/></svg>